Coordinates																																							
version=1																																							
nRows=34																																							
nColumns=40																																							
inDegrees=yes																																							
																																							
Units are S.I. units (second, meters, Newtons, ...)																																							
Angles are in degrees.																																							
																																							
endheader																																							
time	pelvis_tilt	pelvis_list	pelvis_rotation	pelvis_tx	pelvis_ty	pelvis_tz	hip_flexion_r	hip_adduction_r	hip_rotation_r	knee_angle_r	knee_angle_r_beta	ankle_angle_r	subtalar_angle_r	mtp_angle_r	hip_flexion_l	hip_adduction_l	hip_rotation_l	knee_angle_l	knee_angle_l_beta	ankle_angle_l	subtalar_angle_l	mtp_angle_l	lumbar_extension	lumbar_bending	lumbar_rotation	arm_flex_r	arm_add_r	arm_rot_r	elbow_flex_r	pro_sup_r	wrist_flex_r	wrist_dev_r	arm_flex_l	arm_add_l	arm_rot_l	elbow_flex_l	pro_sup_l	wrist_flex_l	wrist_dev_l
750	0	0	0	0	0	0	29.25109832	-4.18404269	-33.71632273	55.99023211	0	8.828639006	4.882415967	0	-23.84881431	28.34373974	-16.22506786	23.23500763	0	18.64605638	1.904190066	0	0	0	0	0	0	0	0	0	0	0	0	0	0	0	0	0	0
751	0	0	0	0	0	0	95.97016124	18.64709712	20.99108223	49.97170079	0	24.47805047	-7.056907938	0	99.93762489	-8.115783379	25.02743063	77.63140598	0	-10.79171182	8.280423034	0	0	0	0	0	0	0	0	0	0	0	0	0	0	0	0	0	0
752	0	0	0	0	0	0	1.090986559	-44.42222859	3.783611515	32.81620922	0	-9.574172692	-5.24060384	0	96.43994571	-5.181625654	20.26338208	10.22670388	0	-3.700462797	-15.58197217	0	0	0	0	0	0	0	0	0	0	0	0	0	0	0	0	0	0
753	0	0	0	0	0	0	12.61339733	3.263487651	36.55452304	15.61380368	0	-36.63362945	9.369139643	0	94.91134378	4.207220164	16.584716	23.78520835	0	17.50271115	10.40363087	0	0	0	0	0	0	0	0	0	0	0	0	0	0	0	0	0	0
754	0	0	0	0	0	0	108.2920094	18.35960967	-24.23887049	44.88103637	0	17.00375554	12.81089587	0	55.38344366	7.298950165	33.31403853	47.56421917	0	4.194217243	6.872221983	0	0	0	0	0	0	0	0	0	0	0	0	0	0	0	0	0	0
755	0	0	0	0	0	0	24.2208911	1.650043795	35.54796924	81.80496145	0	-27.70549349	-15.50216455	0	-27.15818743	-26.7057427	-10.08052866	99.69814231	0	-36.58506333	15.67310378	0	0	0	0	0	0	0	0	0	0	0	0	0	0	0	0	0	0
756	0	0	0	0	0	0	-6.293235446	2.01381945	36.0695431	15.94094402	0	19.15420887	-6.158232471	0	-18.56836506	-12.26305035	22.61765795	28.80999534	0	-33.69821022	-13.94574866	0	0	0	0	0	0	0	0	0	0	0	0	0	0	0	0	0	0
757	0	0	0	0	0	0	41.6953156	22.71522487	-31.57135465	56.85941649	0	16.28354666	-9.146195819	0	32.94750736	-17.87157918	20.82459089	31.6401011	0	-12.01044802	10.28270981	0	0	0	0	0	0	0	0	0	0	0	0	0	0	0	0	0	0
758	0	0	0	0	0	0	38.60657515	-21.20729412	18.23753248	37.45556837	0	-8.420723941	9.540481542	0	75.10153023	10.10576621	4.599800247	97.50284422	0	-8.455086388	-4.265843653	0	0	0	0	0	0	0	0	0	0	0	0	0	0	0	0	0	0
759	0	0	0	0	0	0	53.89880431	26.85017953	-29.27928396	54.67790334	0	-17.30722936	16.72654322	0	112.6829342	-20.43780796	30.31469152	80.32872992	0	-39.04181589	-0.613692333	0	0	0	0	0	0	0	0	0	0	0	0	0	0	0	0	0	0
760	0	0	0	0	0	0	36.77790689	-14.36097334	8.88039651	89.33937215	0	25.7350135	1.102315092	0	-27.40302061	-10.81834753	27.29673908	48.20559534	0	11.46135446	-10.16927292	0	0	0	0	0	0	0	0	0	0	0	0	0	0	0	0	0	0
761	0	0	0	0	0	0	83.64148602	-46.98091801	-17.8403103	46.05108559	0	-14.28620878	6.41999109	0	79.06269331	-23.06021216	28.87538266	90.9554218	0	-36.53479238	11.41772438	0	0	0	0	0	0	0	0	0	0	0	0	0	0	0	0	0	0
762	0	0	0	0	0	0	67.30531869	-45.75395453	-20.39940448	77.05393701	0	15.53660217	15.38493224	0	19.83284263	23.49729365	19.59797857	90.58431522	0	-27.21186254	19.82248954	0	0	0	0	0	0	0	0	0	0	0	0	0	0	0	0	0	0
763	0	0	0	0	0	0	33.97542364	-26.41348086	-32.25894487	77.26061852	0	11.50647573	-11.70077674	0	-23.09695159	20.49664765	33.61319687	49.19094944	0	-20.46049127	0.932558559	0	0	0	0	0	0	0	0	0	0	0	0	0	0	0	0	0	0
764	0	0	0	0	0	0	14.56252246	28.84405441	-10.14157243	71.72336333	0	18.4429186	15.40176842	0	-18.43617188	-21.91611706	39.63881866	19.93851261	0	20.23679605	2.593189456	0	0	0	0	0	0	0	0	0	0	0	0	0	0	0	0	0	0
765	0	0	0	0	0	0	36.5954275	-6.33506098	3.995730352	76.54415073	0	-15.0746376	3.702529019	0	9.641641159	-33.04196641	29.33618877	86.1597474	0	-1.988201136	0.793100632	0	0	0	0	0	0	0	0	0	0	0	0	0	0	0	0	0	0
766	0	0	0	0	0	0	-8.987747487	-7.616253734	-26.02153146	72.44055744	0	18.5109116	-12.33662942	0	97.69970965	-16.32817932	4.312054277	39.04498131	0	8.647567257	-18.29522907	0	0	0	0	0	0	0	0	0	0	0	0	0	0	0	0	0	0
767	0	0	0	0	0	0	85.43877303	-13.28155173	-21.29993252	85.88709627	0	-15.28597809	8.944457064	0	37.56215753	-32.73162926	-23.70074354	67.64870948	0	-4.632611964	-12.96187786	0	0	0	0	0	0	0	0	0	0	0	0	0	0	0	0	0	0
768	0	0	0	0	0	0	-10.9506606	14.13160579	-20.97592939	69.71148681	0	-24.60691158	17.17327928	0	16.84055201	-2.574033491	-1.449845022	88.84452985	0	6.614211965	8.022943988	0	0	0	0	0	0	0	0	0	0	0	0	0	0	0	0	0	0
769	0	0	0	0	0	0	60.26618424	-11.74388412	-34.93414471	95.57120743	0	-11.74210234	10.30132826	0	98.0610323	-31.40838742	-25.41622474	77.31295027	0	12.79432458	7.528583344	0	0	0	0	0	0	0	0	0	0	0	0	0	0	0	0	0	0
770	0	0	0	0	0	0	74.25519345	15.65635995	-31.92410987	51.02165897	0	11.87378159	-2.504912264	0	82.36487743	-41.42114612	10.82537048	29.42573055	0	-16.74359628	3.989778334	0	0	0	0	0	0	0	0	0	0	0	0	0	0	0	0	0	0
771	0	0	0	0	0	0	14.27816097	8.268434095	-28.46633148	44.66968285	0	-13.45904463	-9.016574631	0	-3.074221589	-39.23120268	11.91823033	32.15072835	0	7.67852868	-7.584488787	0	0	0	0	0	0	0	0	0	0	0	0	0	0	0	0	0	0
772	0	0	0	0	0	0	-3.981630639	4.72169029	9.612642029	60.67749602	0	10.07352524	-15.72824957	0	-9.95059584	-35.46622811	37.52529032	58.90476903	0	-9.419046622	-5.402228433	0	0	0	0	0	0	0	0	0	0	0	0	0	0	0	0	0	0
773	0	0	0	0	0	0	90.69706604	28.37192298	23.30177902	56.53837685	0	-1.110025238	-9.726050443	0	99.61130693	8.967839817	-7.582387173	8.315726831	0	-28.32587822	-17.45403775	0	0	0	0	0	0	0	0	0	0	0	0	0	0	0	0	0	0
774	0	0	0	0	0	0	51.79816303	12.73405389	24.08734505	31.57717348	0	22.01975633	11.77185267	0	99.15081989	-46.11837738	-17.90542942	91.85026424	0	27.45099036	12.93175825	0	0	0	0	0	0	0	0	0	0	0	0	0	0	0	0	0	0
775	0	0	0	0	0	0	-1.11814935	-25.64784366	-39.0730802	56.71434359	0	-24.01053295	10.58519653	0	115.8263855	7.027330655	39.9911419	12.99009656	0	5.847230345	-12.47752236	0	0	0	0	0	0	0	0	0	0	0	0	0	0	0	0	0	0
776	0	0	0	0	0	0	86.37081726	-25.57080188	-8.743790233	38.85809752	0	-34.20121549	4.825522378	0	106.2272963	27.27625782	-27.75498717	91.7435998	0	-15.79970361	-8.749974924	0	0	0	0	0	0	0	0	0	0	0	0	0	0	0	0	0	0
777	0	0	0	0	0	0	-29.40946189	-36.75098957	22.47398304	25.40649292	0	10.94301388	-12.80815396	0	24.27420169	13.31214364	6.833249943	22.80719976	0	21.38899458	-13.25214441	0	0	0	0	0	0	0	0	0	0	0	0	0	0	0	0	0	0
778	0	0	0	0	0	0	83.49792403	-37.86425748	1.073779587	88.06641751	0	-23.52085793	-3.882833235	0	76.10742453	-31.04805308	38.39037351	90.6131344	0	20.09213238	6.946827492	0	0	0	0	0	0	0	0	0	0	0	0	0	0	0	0	0	0
779	0	0	0	0	0	0	13.76353289	17.41658594	27.89426936	40.34880962	0	-34.91494852	-17.73594071	0	-9.157865439	-8.360356015	-22.37467248	19.42948426	0	-37.51739912	-14.91290371	0	0	0	0	0	0	0	0	0	0	0	0	0	0	0	0	0	0
780	0	0	0	0	0	0	24.82669425	1.325020604	15.21394028	10.01513787	0	-8.919674691	2.923497529	0	84.12960758	18.36480764	-32.48588444	75.40279708	0	15.81417111	10.24779961	0	0	0	0	0	0	0	0	0	0	0	0	0	0	0	0	0	0
781	0	0	0	0	0	0	-27.94938889	12.61943581	-37.74422823	24.36482623	0	8.068369496	-18.97220587	0	69.04202623	-24.36156285	-26.67925995	85.7183486	0	22.48003455	0.813197518	0	0	0	0	0	0	0	0	0	0	0	0	0	0	0	0	0	0
782	0	0	0	0	0	0	90.40181637	26.5232709	-28.81453654	20.83435595	0	28.49473699	-6.959218026	0	78.93120024	7.388965154	17.39734059	75.8620606	0	25.28686817	2.920151697	0	0	0	0	0	0	0	0	0	0	0	0	0	0	0	0	0	0
783	0	0	0	0	0	0	89.23564696	-46.8991655	2.50909536	60.98215884	0	-24.08724963	11.89754591	0	33.65579635	-6.941628124	-11.04366622	37.50165521	0	2.076938794	16.31999387	0	0	0	0	0	0	0	0	0	0	0	0	0	0	0	0	0	0
